<svg xmlns="http://www.w3.org/2000/svg" xmlns:xlink="http://www.w3.org/1999/xlink" contentStyleType="text/css" height="851px" preserveAspectRatio="none" style="width:433px;height:851px;background:#FFFFFF;" version="1.1" viewBox="0 0 433 851" width="433px" zoomAndPan="magnify"><title>OAI-PMH ontology - 0.1 - 2024-11-07 16:20:18 +0100</title><defs/><g><text fill="#000000" font-family="sans-serif" font-size="14" font-weight="bold" lengthAdjust="spacing" textLength="405.5625" x="10" y="23.5352">OAI-PMH ontology - 0.1 - 2024-11-07 16:20:18 +0100</text><path d="M36.9528,49.4883 L59.6774,49.4883 A3.75,3.75 0 0 1 62.1774,51.9883 L69.1774,71.9766 L413.6097,71.9766 A2.5,2.5 0 0 1 416.1097,74.4766 L416.1097,842.4609 A2.5,2.5 0 0 1 413.6097,844.9609 L36.9528,844.9609 A2.5,2.5 0 0 1 34.4528,842.4609 L34.4528,51.9883 A2.5,2.5 0 0 1 36.9528,49.4883 " fill="none" style="stroke:#000000;stroke-width:1.5;"/><line style="stroke:#000000;stroke-width:1.5;" x1="34.4528" x2="69.1774" y1="71.9766" y2="71.9766"/><text fill="#000000" font-family="sans-serif" font-size="14" font-weight="bold" lengthAdjust="spacing" textLength="21.7246" x="38.4528" y="65.0234">oai</text><!--class Base--><g id="elem_Base"><rect codeLine="13" fill="#F1F1F1" height="50.9766" id="Base" rx="2.5" ry="2.5" style="stroke:#181818;stroke-width:0.5;" width="106.6777" x="222.8554" y="89.4883"/><text fill="#000000" font-family="sans-serif" font-size="14" lengthAdjust="spacing" textLength="30.7207" x="260.8339" y="108.0234">Base</text><line style="stroke:#181818;stroke-width:0.5;" x1="223.8554" x2="328.5331" y1="115.9766" y2="115.9766"/><text fill="#000000" font-family="sans-serif" font-size="14" lengthAdjust="spacing" textLength="94.6777" x="228.8554" y="133.5117">xsd:string : id</text></g><!--class CodeTable--><g id="elem_CodeTable"><rect codeLine="56" fill="#F1F1F1" height="67.4648" id="CodeTable" rx="2.5" ry="2.5" style="stroke:#181818;stroke-width:0.5;" width="129.332" x="129.6195" y="200.4648"/><text fill="#000000" font-family="sans-serif" font-size="14" lengthAdjust="spacing" textLength="72.1396" x="158.2157" y="219">CodeTable</text><line style="stroke:#181818;stroke-width:0.5;" x1="130.6195" x2="257.9515" y1="226.9531" y2="226.9531"/><text fill="#000000" font-family="sans-serif" font-size="14" lengthAdjust="spacing" textLength="105.1162" x="135.6195" y="244.4883">xsd:string : key</text><text fill="#000000" font-family="sans-serif" font-size="14" lengthAdjust="spacing" textLength="117.332" x="135.6195" y="260.9766">xsd:string : value</text></g><!--class Repository--><g id="elem_Repository"><rect codeLine="57" fill="#F1F1F1" height="149.9063" id="Repository" rx="2.5" ry="2.5" style="stroke:#181818;stroke-width:0.5;" width="214.9043" x="54.1252" y="680.0547"/><text fill="#000000" font-family="sans-serif" font-size="14" lengthAdjust="spacing" textLength="72.126" x="125.5143" y="698.5898">Repository</text><line style="stroke:#181818;stroke-width:0.5;" x1="55.1252" x2="268.0295" y1="706.543" y2="706.543"/><text fill="#000000" font-family="sans-serif" font-size="14" lengthAdjust="spacing" textLength="107.0371" x="60.1252" y="724.0781">xsd:anyURI : uri</text><text fill="#000000" font-family="sans-serif" font-size="14" lengthAdjust="spacing" textLength="101.9922" x="60.1252" y="740.5664">xsd:string : set</text><text fill="#000000" font-family="sans-serif" font-size="14" lengthAdjust="spacing" textLength="121.6113" x="60.1252" y="757.0547">rdf:JSON : identify</text><text fill="#000000" font-family="sans-serif" font-size="14" lengthAdjust="spacing" textLength="197.6816" x="60.1252" y="773.543">xsd:string : metadata_format</text><text fill="#000000" font-family="sans-serif" font-size="14" lengthAdjust="spacing" textLength="138.1475" x="60.1252" y="790.0313">xsd:dateTime : from</text><text fill="#000000" font-family="sans-serif" font-size="14" lengthAdjust="spacing" textLength="158.7852" x="60.1252" y="806.5195">oai:Schedule : schedule</text><text fill="#000000" font-family="sans-serif" font-size="14" lengthAdjust="spacing" textLength="202.9043" x="60.1252" y="823.0078">oai:Transformer : transformer</text></g><!--class Schedule--><g id="elem_Schedule"><rect codeLine="58" fill="#F1F1F1" height="100.4414" id="Schedule" rx="2.5" ry="2.5" style="stroke:#181818;stroke-width:0.5;" width="185.8242" x="215.2855" y="287.9297"/><text fill="#000000" font-family="sans-serif" font-size="14" lengthAdjust="spacing" textLength="60.5459" x="277.9246" y="306.4648">Schedule</text><line style="stroke:#181818;stroke-width:0.5;" x1="216.2855" x2="400.1097" y1="314.418" y2="314.418"/><text fill="#000000" font-family="sans-serif" font-size="14" lengthAdjust="spacing" textLength="173.8242" x="221.2855" y="331.9531">xsd:dateTime : start_time</text><text fill="#000000" font-family="sans-serif" font-size="14" lengthAdjust="spacing" textLength="114.1396" x="221.2855" y="348.4414">xsd:integer : day</text><text fill="#000000" font-family="sans-serif" font-size="14" lengthAdjust="spacing" textLength="134.5654" x="221.2855" y="364.9297">xsd:integer : month</text><text fill="#000000" font-family="sans-serif" font-size="14" lengthAdjust="spacing" textLength="155.709" x="221.2855" y="381.418">xsd:integer : week_day</text></g><!--class Transformer--><g id="elem_Transformer"><rect codeLine="59" fill="#F1F1F1" height="67.4648" id="Transformer" rx="2.5" ry="2.5" style="stroke:#181818;stroke-width:0.5;" width="196.249" x="63.4528" y="535.9688"/><text fill="#000000" font-family="sans-serif" font-size="14" lengthAdjust="spacing" textLength="84.2119" x="119.4714" y="554.5039">Transformer</text><line style="stroke:#181818;stroke-width:0.5;" x1="64.4528" x2="258.7018" y1="562.457" y2="562.457"/><text fill="#000000" font-family="sans-serif" font-size="14" lengthAdjust="spacing" textLength="119.1094" x="69.4528" y="579.9922">xsd:string : name</text><text fill="#000000" font-family="sans-serif" font-size="14" lengthAdjust="spacing" textLength="184.249" x="69.4528" y="596.4805">oai:TransformerType : type</text></g><!--class TransformerType--><g id="elem_TransformerType"><rect codeLine="55" fill="#F1F1F1" height="50.9766" id="TransformerType" rx="2.5" ry="2.5" style="stroke:#181818;stroke-width:0.5;" width="122.9902" x="132.7904" y="408.3711"/><text fill="#000000" font-family="sans-serif" font-size="14" lengthAdjust="spacing" textLength="116.9902" x="135.7904" y="426.9063">TransformerType</text><line style="stroke:#181818;stroke-width:0.5;" x1="133.7904" x2="254.7806" y1="434.8594" y2="434.8594"/><text fill="#000000" font-family="sans-serif" font-size="14" lengthAdjust="spacing" textLength="94.6777" x="138.7904" y="452.3945">xsd:string : id</text></g><line style="stroke:#800000;stroke-width:1.0;" x1="308.1976" x2="308.1976" y1="388.3711" y2="652.7441"/><line style="stroke:#800000;stroke-width:1.0;" x1="308.1976" x2="215.3034" y1="652.7441" y2="652.7441"/><line style="stroke:#800000;stroke-width:1.0;" x1="215.3034" x2="215.3034" y1="652.7441" y2="680.0547"/><text fill="#000000" font-family="sans-serif" font-size="13" lengthAdjust="spacing" textLength="55.8467" x="248.3509" y="493.916">schedule</text><line style="stroke:#800000;stroke-width:1.0;" x1="161.5773" x2="161.5773" y1="603.4336" y2="680.0547"/><text fill="#000000" font-family="sans-serif" font-size="13" lengthAdjust="spacing" textLength="74.8389" x="82.7384" y="638.002">transformer</text><text fill="#000000" font-family="sans-serif" font-size="13" lengthAdjust="spacing" textLength="8.2202" x="164.5773" y="675.3125">1</text><line style="stroke:#800000;stroke-width:1.0;" x1="194.2855" x2="194.2855" y1="459.3477" y2="535.9688"/><text fill="#000000" font-family="sans-serif" font-size="13" lengthAdjust="spacing" textLength="27.0791" x="163.2064" y="493.916">type</text><text fill="#000000" font-family="sans-serif" font-size="13" lengthAdjust="spacing" textLength="8.2202" x="197.2855" y="531.2266">1</text><line style="stroke:#800000;stroke-width:1.0;" x1="194.2855" x2="194.2855" y1="267.9297" y2="408.3711"/><polygon fill="#FFFFFF" points="194.2855,267.9297,187.2855,286.9297,201.2855,286.9297,194.2855,267.9297" style="stroke:#800000;stroke-width:1.0;"/><line style="stroke:#800000;stroke-width:1.0;" x1="286.862" x2="286.862" y1="140.4648" y2="170.4648"/><line style="stroke:#800000;stroke-width:1.0;" x1="286.862" x2="194.2855" y1="170.4648" y2="170.4648"/><line style="stroke:#800000;stroke-width:1.0;" x1="194.2855" x2="194.2855" y1="170.4648" y2="200.4648"/><polygon fill="#FFFFFF" points="286.862,140.4648,279.862,159.4648,293.862,159.4648,286.862,140.4648" style="stroke:#800000;stroke-width:1.0;"/><line style="stroke:#800000;stroke-width:1.0;" x1="244.191" x2="244.191" y1="140.4648" y2="150.4648"/><line style="stroke:#800000;stroke-width:1.0;" x1="244.191" x2="52.4528" y1="150.4648" y2="150.4648"/><line style="stroke:#800000;stroke-width:1.0;" x1="52.4528" x2="52.4528" y1="150.4648" y2="652.7441"/><line style="stroke:#800000;stroke-width:1.0;" x1="52.4528" x2="107.8512" y1="652.7441" y2="652.7441"/><line style="stroke:#800000;stroke-width:1.0;" x1="107.8512" x2="107.8512" y1="652.7441" y2="680.0547"/><polygon fill="#FFFFFF" points="244.191,140.4648,237.191,159.4648,251.191,159.4648,244.191,140.4648" style="stroke:#800000;stroke-width:1.0;"/><line style="stroke:#800000;stroke-width:1.0;" x1="308.1976" x2="308.1976" y1="140.4648" y2="287.9297"/><polygon fill="#FFFFFF" points="308.1976,140.4648,301.1976,159.4648,315.1976,159.4648,308.1976,140.4648" style="stroke:#800000;stroke-width:1.0;"/><line style="stroke:#800000;stroke-width:1.0;" x1="265.5265" x2="265.5265" y1="140.4648" y2="160.4648"/><line style="stroke:#800000;stroke-width:1.0;" x1="265.5265" x2="118.6195" y1="160.4648" y2="160.4648"/><line style="stroke:#800000;stroke-width:1.0;" x1="118.6195" x2="118.6195" y1="160.4648" y2="508.6582"/><line style="stroke:#800000;stroke-width:1.0;" x1="118.6195" x2="128.8691" y1="508.6582" y2="508.6582"/><line style="stroke:#800000;stroke-width:1.0;" x1="128.8691" x2="128.8691" y1="508.6582" y2="535.9688"/><polygon fill="#FFFFFF" points="265.5265,140.4648,258.5265,159.4648,272.5265,159.4648,265.5265,140.4648" style="stroke:#800000;stroke-width:1.0;"/><!--SRC=[XLF1Zfim43tNNp6xFLPK4AtQYaEaTDNkfcesLPAgnsWM3s05syWspT9e_xqcsqI6XfO3sBmtZpV3yrLji9085RQwSK3LZjcTK3KQb91LQErdhTnQ_298RjWLfrmeWg_pk_lDSZLxkFiKq0kZctgkIZB2eSfyHQYbPQqLUItNLWIDh2O1kZTOByXQBEY7uAw498u3U6QCtj_gIXjulK2ZjMBC2UTrbhDvz6rn3zwaXuiM8eZV9lu-YIStKP94yNj8tgMJE4q-m9kuauNUnMhCTlwpe570WR5Zp_0HBHtOgqCkgEBFy6HvQfqHge0K10Vsp4xCMyrfWu_LA7r7BOn0Fx5gA1HRKQsjSDgq0pLKxVVLt9SqHeofMN81P7YUVbal7uw6_TX5Fcf3aaEE3hUvDXBTWEOHsWX9dfWRBGFKJonTPoNnfkfGUrhs6Hk3odRAP3p91JlV-BayWg3vK6pAGe48hfFhFZDKd9u6UT8zZFPY7HgtTTscpn7AKN7qoh4TnQGFN3cAxebsssDvzs__U0hw6CkAGlcFyMtQkdFkkeSN7Y8lincCkmEc5nnq5Vy9-CKQe2T7YWUv7vw3CwCxGt_b-X9w3i45B6od1xFInneoOJ9luRZsCIurjoyRahLh_IlvICR-1W00]--></g></svg>